#N canvas 2510 25 1120 1121 12;
#X declare -path purest_json;
#X obj 86 157 rest;
#X obj 88 218 print data;
#X obj 186 219 print status;
#X msg 441 654 add channelId BBCONE;
#X obj 463 747 urlparams;
#X msg 478 703 add simulator HL;
#X obj 50 827 json-encode;
#X obj 656 327 rest;
#X obj 655 390 print data;
#X obj 756 390 print status;
#X obj 144 863 print json-encoded data;
#X obj 84 913 json-decode;
#X obj 87 968 print decode_json_data;
#X msg 79 721 bang;
#X obj 774 994 rest;
#X obj 776 1055 print data;
#X obj 874 1056 print status;
#X obj 774 737 urlparams;
#X obj 828 797 print urlparams;
#X msg 777 632 clear \, add stuff some info \, bang;
#X obj 769 691 json-encode;
#X obj 41 1058 declare -path purest_json;
#X msg 775 828 add name bob;
#X obj 769 869 json-encode;
#X obj 52 860 t a;
#X obj 621 136 json-encode;
#X obj 479 243 json-decode;
#X msg 724 83 bang;
#X obj 620 182 t a a;
#X obj 476 294 print decoded_values;
#X msg 128 750 read testdata.json;
#X msg 617 21 add id BBC1;
#X msg 659 50 add simulator HL;
#X msg 656 242 POST localhost:3000/datasent/BBC1HD?programme=masterchef
\$1;
#X msg 87 97 GET localhost:3000/hello;
#X msg 772 904 POST localhost:3000/datasent/BBC1HD \$1;
#X connect 0 0 1 0;
#X connect 0 1 2 0;
#X connect 3 0 4 0;
#X connect 5 0 4 0;
#X connect 6 0 24 0;
#X connect 7 0 8 0;
#X connect 7 1 9 0;
#X connect 11 0 12 0;
#X connect 13 0 6 0;
#X connect 14 0 15 0;
#X connect 14 1 16 0;
#X connect 17 0 18 0;
#X connect 19 0 20 0;
#X connect 20 0 17 0;
#X connect 22 0 23 0;
#X connect 23 0 35 0;
#X connect 24 0 11 0;
#X connect 25 0 28 0;
#X connect 26 0 29 0;
#X connect 27 0 25 0;
#X connect 28 0 26 0;
#X connect 28 1 33 0;
#X connect 30 0 6 0;
#X connect 31 0 25 0;
#X connect 32 0 25 0;
#X connect 33 0 7 0;
#X connect 34 0 0 0;
#X connect 35 0 14 0;
